# xmcd
#
# Track frame offsets: 
#        150
#        15651
#        31142
#        44442
#        58049
#        85173
#        101891
#        122113
#        134668
#        151032
#        166719
#        182980
#        199185
#
# Disc length: 2894 seconds
#
# Revision: 0
# Processed by: cddbd v1.4PL0 Copyright (c) Steve Scherf et al.
# Submitted via: ExactAudioCopy v0.90b4
#
DISCID=ab0b4c0d
DTITLE=W.C.Clark - From Austin With Soul
DYEAR=1900
DGENRE=Blues
TTITLE0=Snatching It Back
TTITLE1=Midnight Hour Blues
TTITLE2=I've Been Searching
TTITLE3=Don't Mess Up A Goad Thing
TTITLE4=How Long Is A Heartache Supposed To Last? 
TTITLE5=Bitchy Men
TTITLE6=Let It Rain
TTITLE7=Got Me Where You Want Me
TTITLE8=Got To Find A Lover
TTITLE9=Get Out Of My Life, Woman
TTITLE10=I'm Gonna Disappear
TTITLE11=Real Uve Livin' Hurtin' Man
TTITLE12=I Keep Hanging On
EXTD=
EXTT0=
EXTT1=
EXTT2=
EXTT3=
EXTT4=
EXTT5=
EXTT6=
EXTT7=
EXTT8=
EXTT9=
EXTT10=
EXTT11=
EXTT12=
PLAYORDER=
